# xmcd
#
# Track frame offsets: 
#        150
#        17123
#        35977
#        55228
#        72508
#        88332
#        104706
#        121951
#        136061
#
# Disc length: 2014 seconds
#
# Revision: 0
# Processed by: cddbd v1.5.2PL0 Copyright (c) Steve Scherf et al.
# Submitted via: ExactAudioCopy v0.99pb5
#
DISCID=8707dc09
DTITLE=Larry Lampkin - When I Get Home
DYEAR=2011
DGENRE=Blues
TTITLE0=Running For Your Love
TTITLE1=Cable Man
TTITLE2=When I Get Home
TTITLE3=Bill Collectors
TTITLE4=Losing My Soul
TTITLE5=I Got Remedy
TTITLE6=Country Woman
TTITLE7=Hoochie Love
TTITLE8=Fort Worth Blues
EXTD=
EXTT0=
EXTT1=
EXTT2=
EXTT3=
EXTT4=
EXTT5=
EXTT6=
EXTT7=
EXTT8=
PLAYORDER=
